<svg width="22" height="22" viewBox="0 0 22 22" fill="none" xmlns="http://www.w3.org/2000/svg">
<path fill-rule="evenodd" clip-rule="evenodd" d="M6.51992 0.333374H15.4799C18.8932 0.333374 21.6666 3.10671 21.6666 6.52004V15.48C21.6666 18.8968 18.8967 21.6667 15.4799 21.6667H6.51992C3.10659 21.6667 0.333252 18.8934 0.333252 15.48V6.52004C0.333252 3.10324 3.10312 0.333374 6.51992 0.333374ZM6.30658 2.46671C4.18581 2.46671 2.46658 4.18594 2.46658 6.30671V15.6934C2.46658 17.816 4.18392 19.5334 6.30658 19.5334H15.6933C17.814 19.5334 19.5333 17.8141 19.5333 15.6934V6.30671C19.5333 4.18404 17.8159 2.46671 15.6933 2.46671H6.30658ZM17.9333 5.40004C17.9333 4.66366 17.3363 4.06671 16.5999 4.06671C15.8635 4.06671 15.2666 4.66366 15.2666 5.40004C15.2666 6.13642 15.8635 6.73338 16.5999 6.73338C17.3363 6.73338 17.9333 6.13642 17.9333 5.40004ZM10.9999 5.66671C13.9454 5.66671 16.3333 8.05452 16.3333 11C16.3333 13.9456 13.9454 16.3334 10.9999 16.3334C8.0544 16.3334 5.66659 13.9456 5.66659 11C5.66659 8.05452 8.0544 5.66671 10.9999 5.66671ZM7.79992 11C7.79992 9.23273 9.23261 7.80004 10.9999 7.80004C12.7672 7.80004 14.1999 9.23273 14.1999 11C14.1999 12.7674 12.7672 14.2 10.9999 14.2C9.23261 14.2 7.79992 12.7674 7.79992 11Z" fill="black"/>
<mask id="mask0" mask-type="alpha" maskUnits="userSpaceOnUse" x="0" y="0" width="22" height="22">
<path fill-rule="evenodd" clip-rule="evenodd" d="M6.51992 0.333374H15.4799C18.8932 0.333374 21.6666 3.10671 21.6666 6.52004V15.48C21.6666 18.8968 18.8967 21.6667 15.4799 21.6667H6.51992C3.10659 21.6667 0.333252 18.8934 0.333252 15.48V6.52004C0.333252 3.10324 3.10312 0.333374 6.51992 0.333374ZM6.30658 2.46671C4.18581 2.46671 2.46658 4.18594 2.46658 6.30671V15.6934C2.46658 17.816 4.18392 19.5334 6.30658 19.5334H15.6933C17.814 19.5334 19.5333 17.8141 19.5333 15.6934V6.30671C19.5333 4.18404 17.8159 2.46671 15.6933 2.46671H6.30658ZM17.9333 5.40004C17.9333 4.66366 17.3363 4.06671 16.5999 4.06671C15.8635 4.06671 15.2666 4.66366 15.2666 5.40004C15.2666 6.13642 15.8635 6.73338 16.5999 6.73338C17.3363 6.73338 17.9333 6.13642 17.9333 5.40004ZM10.9999 5.66671C13.9454 5.66671 16.3333 8.05452 16.3333 11C16.3333 13.9456 13.9454 16.3334 10.9999 16.3334C8.0544 16.3334 5.66659 13.9456 5.66659 11C5.66659 8.05452 8.0544 5.66671 10.9999 5.66671ZM7.79992 11C7.79992 9.23273 9.23261 7.80004 10.9999 7.80004C12.7672 7.80004 14.1999 9.23273 14.1999 11C14.1999 12.7674 12.7672 14.2 10.9999 14.2C9.23261 14.2 7.79992 12.7674 7.79992 11Z" fill="white"/>
</mask>
<g mask="url(#mask0)">
<rect x="-1" y="-1" width="24" height="24" fill="white"/>
</g>
</svg>
