<svg width="186" height="20" viewBox="0 0 186 20" fill="none" xmlns="http://www.w3.org/2000/svg">
<path d="M15.8609 0L11.1006 7.50213L9.51592 5.00039L0 20H3.17249L9.51592 10.0008L11.1006 12.5025L15.8609 5.00039L23.789 17.5029H14.2716L16.7655 13.5714L18.1008 14.1476L17.0583 10.0984L13.0122 11.9572L14.2716 12.5025L9.51592 20H28.5447L15.8609 0Z" fill="#1A181D"/>
<path d="M39.8481 18.8504L43.2065 1.68213L48.6902 14.1041L54.3706 1.68213L57.3913 18.8504H54.919L53.3699 9.21059L48.6453 19.0286L44.0585 9.2013L42.3421 18.8504H39.8481ZM72.0889 2.19177V4.33568H63.49V9.40578H71.1656V11.5357H63.49V16.6864H72.408V18.8551H61.2547V2.19177H72.0889ZM85.4775 18.8504L81.5599 12.7006C81.3755 12.7172 81.1904 12.7244 81.0053 12.7223H78.5268V18.8504H76.307V2.19177H80.7435C81.7874 2.17177 82.8235 2.37455 83.7828 2.78661C84.6411 3.15935 85.371 3.77613 85.8818 4.5603C86.4053 5.39876 86.6704 6.37285 86.6439 7.36101C86.6579 8.34949 86.4269 9.32607 85.9716 10.2035C85.5127 11.07 84.7794 11.7597 83.8866 12.1647L88.083 18.869L85.4775 18.8504ZM80.9604 10.5552C82.1594 10.5552 83.0191 10.2454 83.552 9.6149C84.0703 9.01186 84.3527 8.24141 84.3466 7.44621C84.3438 6.94427 84.23 6.44916 84.0136 5.99628C83.7834 5.50889 83.4184 5.09765 82.9618 4.81124C82.4105 4.4772 81.7734 4.31187 81.1292 4.33568H78.5252V10.5474L80.9604 10.5552ZM93.7247 9.72488L94.0004 9.28185L100.816 2.18248H103.696L96.8151 9.31748L104.096 18.8334H101.261L95.1746 10.7628L93.7804 12.1259V18.8504H91.4925V2.19177H93.7743V8.89613L93.703 9.72488H93.7247ZM118.045 2.18248V4.33568H109.457V9.40578H117.123V11.5357H109.448V16.6864H118.364V18.8551H107.22V2.19177L118.045 2.18248ZM124.5 2.18248V16.6864H132.978V18.8551H122.269V2.19177L124.5 2.18248ZM147.426 2.18248V4.33568H138.829V9.40578H146.509V11.5357H138.835V16.6864H147.756V18.8551H136.603V2.19177L147.426 2.18248ZM150.524 10.5242C150.517 9.03338 150.916 7.56876 151.678 6.2875C152.431 5.00828 153.497 3.942 154.776 3.18937C156.061 2.42584 157.528 2.02286 159.022 2.02286C160.517 2.02286 161.984 2.42584 163.268 3.18937C164.55 3.94458 165.619 5.01337 166.374 6.29525C167.152 7.57154 167.562 9.03748 167.561 10.5319C167.571 12.0314 167.172 13.5052 166.407 14.795C165.476 16.4242 164.032 17.6991 162.299 18.4203C160.567 19.1416 158.645 19.2686 156.833 18.7815C155.021 18.2945 153.421 17.2207 152.284 15.7281C151.147 14.2356 150.536 12.4083 150.548 10.5319L150.524 10.5242ZM152.826 10.5459C152.822 11.6487 153.106 12.7336 153.651 13.6924C154.196 14.6513 154.982 15.4506 155.932 16.011C156.882 16.5745 157.969 16.8676 159.074 16.8583C160.164 16.8647 161.235 16.5734 162.172 16.0156C163.104 15.4605 163.87 14.6656 164.39 13.7137C164.93 12.7339 165.213 11.6335 165.213 10.5149C165.213 9.39633 164.93 8.29593 164.39 7.31609C163.855 6.35595 163.076 5.55432 162.131 4.99249C161.186 4.42558 160.102 4.12976 158.999 4.1374C157.891 4.13417 156.805 4.44111 155.862 5.02347C154.921 5.59196 154.147 6.39885 153.618 7.36256C153.073 8.34139 152.79 9.44429 152.797 10.5645L152.826 10.5459ZM185.886 2.19177V19.405H185.815L173.578 6.98304L173.627 18.8504H171.372V1.68678H171.488L183.67 14.2497L183.625 2.19487L185.886 2.19177Z" fill="#1A181D"/>
</svg>
