<svg width="22" height="17" viewBox="0 0 22 17" fill="none" xmlns="http://www.w3.org/2000/svg">
<path fill-rule="evenodd" clip-rule="evenodd" d="M21.143 1.93939C20.3963 2.27879 19.5915 2.50182 18.7575 2.60848C19.6109 2.09455 20.2703 1.28 20.5806 0.300606C19.7757 0.785455 18.8836 1.12485 17.943 1.31879C17.1769 0.484848 16.1006 0 14.8788 0C12.6 0 10.7381 1.86182 10.7381 4.16C10.7381 4.4897 10.7769 4.8097 10.8448 5.1103C7.39269 4.93576 4.31875 3.27758 2.27269 0.766061C1.9139 1.37697 1.71027 2.09455 1.71027 2.85091C1.71027 4.29576 2.43754 5.57576 3.56239 6.30303C2.8739 6.30303 2.2339 6.10909 1.67148 5.81818C1.67148 5.81818 1.67148 5.81818 1.67148 5.84727C1.67148 7.86424 3.10663 9.55152 5.00724 9.9297C4.65815 10.0267 4.28966 10.0752 3.91148 10.0752C3.64966 10.0752 3.38784 10.0461 3.13572 9.99758C3.65936 11.6364 5.18178 12.8582 7.01451 12.8873C5.59875 14.0121 3.80481 14.6715 1.84602 14.6715C1.51633 14.6715 1.18663 14.6521 0.856934 14.6133C2.69936 15.7964 4.89087 16.4848 7.23754 16.4848C14.8788 16.4848 19.0775 10.143 19.0775 4.64485C19.0775 4.46061 19.0775 4.28606 19.0678 4.10182C19.8824 3.52 20.5806 2.78303 21.143 1.93939Z" fill="black"/>
<mask id="mask0" mask-type="alpha" maskUnits="userSpaceOnUse" x="0" y="0" width="22" height="17">
<path fill-rule="evenodd" clip-rule="evenodd" d="M21.143 1.93939C20.3963 2.27879 19.5915 2.50182 18.7575 2.60848C19.6109 2.09455 20.2703 1.28 20.5806 0.300606C19.7757 0.785455 18.8836 1.12485 17.943 1.31879C17.1769 0.484848 16.1006 0 14.8788 0C12.6 0 10.7381 1.86182 10.7381 4.16C10.7381 4.4897 10.7769 4.8097 10.8448 5.1103C7.39269 4.93576 4.31875 3.27758 2.27269 0.766061C1.9139 1.37697 1.71027 2.09455 1.71027 2.85091C1.71027 4.29576 2.43754 5.57576 3.56239 6.30303C2.8739 6.30303 2.2339 6.10909 1.67148 5.81818C1.67148 5.81818 1.67148 5.81818 1.67148 5.84727C1.67148 7.86424 3.10663 9.55152 5.00724 9.9297C4.65815 10.0267 4.28966 10.0752 3.91148 10.0752C3.64966 10.0752 3.38784 10.0461 3.13572 9.99758C3.65936 11.6364 5.18178 12.8582 7.01451 12.8873C5.59875 14.0121 3.80481 14.6715 1.84602 14.6715C1.51633 14.6715 1.18663 14.6521 0.856934 14.6133C2.69936 15.7964 4.89087 16.4848 7.23754 16.4848C14.8788 16.4848 19.0775 10.143 19.0775 4.64485C19.0775 4.46061 19.0775 4.28606 19.0678 4.10182C19.8824 3.52 20.5806 2.78303 21.143 1.93939Z" fill="white"/>
</mask>
<g mask="url(#mask0)">
<rect x="-1" y="-4" width="24" height="24" fill="white"/>
</g>
</svg>
