<svg width="18" height="18" viewBox="0 0 18 18" fill="none" xmlns="http://www.w3.org/2000/svg">
<path fill-rule="evenodd" clip-rule="evenodd" d="M13.3714 6.68571C13.3714 2.9933 10.3781 0 6.68571 0C2.9933 0 0 2.9933 0 6.68571C0 10.3781 2.9933 13.3714 6.68571 13.3714C8.34171 13.3714 9.864 12.7646 11.0366 11.7669L11.3143 12.0446V12.8571L16.4571 18L18 16.4571L12.8571 11.3143H12.0446L11.7669 11.0366C12.7646 9.864 13.3714 8.34171 13.3714 6.68571ZM2.05714 6.68571C2.05714 4.11429 4.11429 2.05714 6.68571 2.05714C9.25714 2.05714 11.3143 4.11429 11.3143 6.68571C11.3143 9.25714 9.25714 11.3143 6.68571 11.3143C4.11429 11.3143 2.05714 9.25714 2.05714 6.68571Z" fill="white"/>
</svg>
